<svg width="144" height="22" viewBox="0 0 144 22" fill="none" xmlns="http://www.w3.org/2000/svg">
<path d="M140.846 15.4544C140.846 15.0872 140.697 14.7695 140.399 14.5011C140.116 14.2328 139.755 13.9857 139.316 13.7597C138.892 13.5338 138.422 13.3078 137.904 13.0819C137.402 12.8559 136.931 12.5946 136.492 12.2981C136.068 11.9874 135.707 11.6273 135.409 11.2177C135.126 10.8082 134.985 10.3068 134.985 9.71369C134.985 9.29002 135.095 8.90872 135.315 8.56979C135.534 8.21673 135.833 7.92016 136.209 7.68008C136.586 7.44 137.033 7.25642 137.551 7.12931C138.084 6.98809 138.657 6.91748 139.269 6.91748C140.116 6.91748 140.901 6.98103 141.623 7.10813C142.36 7.22111 143.003 7.38352 143.553 7.59535C143.49 8.04726 143.364 8.53448 143.176 9.05701C142.988 9.56541 142.807 10.0314 142.635 10.4551H141.834L140.846 8.2944C140.658 8.22379 140.461 8.18142 140.257 8.1673C140.053 8.13906 139.826 8.12494 139.575 8.12494C139.104 8.12494 138.743 8.25204 138.492 8.50624C138.257 8.74632 138.139 9.0217 138.139 9.33239C138.139 9.68545 138.28 9.99614 138.563 10.2645C138.861 10.5187 139.222 10.7587 139.646 10.9847C140.085 11.2107 140.556 11.4366 141.058 11.6626C141.576 11.8885 142.046 12.1498 142.47 12.4464C142.909 12.7288 143.27 13.0677 143.553 13.4632C143.851 13.8586 144 14.3317 144 14.8824C144 15.8569 143.561 16.6265 142.682 17.1914C141.803 17.7422 140.626 18.0176 139.151 18.0176C138.398 18.0176 137.621 17.947 136.821 17.8058C136.021 17.6645 135.33 17.4668 134.75 17.2126C134.781 16.7042 134.915 16.1888 135.15 15.6662C135.385 15.1437 135.636 14.6777 135.903 14.2681H136.703L137.857 16.5771C138.029 16.6901 138.218 16.7607 138.422 16.789C138.641 16.8031 138.845 16.8101 139.034 16.8101C139.489 16.8101 139.904 16.6901 140.281 16.45C140.658 16.2099 140.846 15.8781 140.846 15.4544Z" fill="#414141"/>
<path d="M132.864 15.984C132.739 16.2241 132.535 16.4712 132.252 16.7254C131.986 16.9655 131.648 17.1844 131.24 17.3821C130.848 17.5657 130.385 17.714 129.852 17.8269C129.334 17.954 128.769 18.0176 128.157 18.0176C127.184 18.0176 126.321 17.8905 125.568 17.6363C124.815 17.368 124.187 16.9937 123.685 16.5136C123.183 16.0193 122.798 15.4332 122.532 14.7553C122.28 14.0775 122.155 13.3149 122.155 12.4675C122.155 10.6599 122.681 9.28296 123.732 8.33677C124.783 7.39058 126.243 6.91748 128.11 6.91748C128.91 6.91748 129.655 7.01634 130.346 7.21405C131.052 7.41176 131.633 7.73657 132.088 8.18849C132.558 8.6404 132.88 9.23353 133.053 9.96789C133.241 10.7023 133.233 11.599 133.029 12.6582H125.803C125.819 13.7738 126.133 14.6636 126.745 15.3273C127.372 15.991 128.29 16.3229 129.499 16.3229C130.016 16.3229 130.55 16.2523 131.099 16.1111C131.664 15.9699 132.103 15.7863 132.417 15.5603L132.864 15.984ZM128.016 8.12494C127.702 8.12494 127.419 8.17436 127.168 8.27322C126.933 8.37208 126.721 8.55567 126.533 8.82399C126.36 9.07819 126.219 9.43125 126.109 9.88316C125.999 10.3209 125.921 10.8788 125.874 11.5566H129.663C129.773 10.4551 129.703 9.60778 129.451 9.01464C129.2 8.4215 128.722 8.12494 128.016 8.12494Z" fill="#414141"/>
<path d="M120.836 17.7633H114.34V16.9372C114.858 16.7112 115.375 16.5417 115.893 16.4288V3.5916L114.104 3.42213V2.59598C114.308 2.51124 114.591 2.42651 114.952 2.34178C115.313 2.25704 115.697 2.18643 116.105 2.12994C116.529 2.05933 116.945 2.00284 117.352 1.96047C117.776 1.90399 118.153 1.86162 118.482 1.83337H119.283V16.4288C119.8 16.5417 120.318 16.7112 120.836 16.9372V17.7633Z" fill="#414141"/>
<path d="M111.571 14.6918C111.571 15.0025 111.571 15.2708 111.571 15.4968C111.587 15.7227 111.61 15.9628 111.642 16.217L113.266 16.4288V17.1703C113.077 17.255 112.819 17.3397 112.489 17.4245C112.175 17.5092 111.838 17.5939 111.477 17.6787C111.132 17.7493 110.787 17.8058 110.441 17.8481C110.096 17.9046 109.79 17.947 109.523 17.9752H108.723C108.566 17.6504 108.472 17.3256 108.441 17.0008C108.409 16.676 108.386 16.2806 108.37 15.8145H108.252C108.174 16.097 108.041 16.3723 107.852 16.6407C107.664 16.8949 107.421 17.1279 107.123 17.3397C106.84 17.5374 106.503 17.6998 106.11 17.8269C105.718 17.954 105.279 18.0176 104.792 18.0176C104.275 18.0176 103.796 17.947 103.357 17.8058C102.917 17.6645 102.533 17.4668 102.203 17.2126C101.874 16.9584 101.615 16.6548 101.427 16.3017C101.238 15.9346 101.144 15.525 101.144 15.0731C101.144 14.4376 101.278 13.9151 101.544 13.5055C101.811 13.096 102.227 12.7641 102.792 12.5099C103.372 12.2416 104.11 12.0439 105.004 11.9168C105.914 11.7897 107.013 11.6979 108.299 11.6414C108.425 10.4269 108.37 9.53716 108.135 8.97227C107.899 8.40738 107.389 8.12494 106.605 8.12494C106.118 8.12494 105.671 8.19555 105.263 8.33677L104.157 10.8788H103.121C102.996 10.7093 102.87 10.5187 102.745 10.3068C102.635 10.0809 102.525 9.84785 102.415 9.60777C102.321 9.35357 102.235 9.09937 102.156 8.84517C102.093 8.59097 102.046 8.34383 102.015 8.10375C102.611 7.73657 103.38 7.44707 104.322 7.23523C105.263 7.0234 106.26 6.91748 107.311 6.91748C108.205 6.91748 108.935 7.00928 109.5 7.19287C110.065 7.36233 110.504 7.60241 110.818 7.9131C111.147 8.20967 111.375 8.56273 111.5 8.97227C111.626 9.38182 111.689 9.81961 111.689 10.2856C111.689 11.133 111.665 11.9026 111.618 12.5946C111.587 13.2725 111.571 13.9716 111.571 14.6918ZM106.275 16.3229C106.605 16.3229 106.887 16.2664 107.123 16.1535C107.358 16.0405 107.554 15.9063 107.711 15.751C107.884 15.5956 108.009 15.4262 108.088 15.2426C108.182 15.059 108.252 14.8966 108.299 14.7553V12.637C107.562 12.6511 106.958 12.6935 106.487 12.7641C106.016 12.8347 105.648 12.9548 105.381 13.1242C105.114 13.2796 104.926 13.4843 104.816 13.7385C104.722 13.9786 104.675 14.2752 104.675 14.6282C104.675 15.1649 104.816 15.5815 105.098 15.8781C105.381 16.1746 105.773 16.3229 106.275 16.3229Z" fill="#414141"/>
<path d="M96.645 15.4544C96.645 15.0872 96.4959 14.7695 96.1978 14.5011C95.9153 14.2328 95.5544 13.9857 95.1151 13.7597C94.6914 13.5338 94.2207 13.3078 93.7029 13.0819C93.2007 12.8559 92.73 12.5946 92.2906 12.2981C91.867 11.9874 91.5061 11.6273 91.2079 11.2177C90.9255 10.8082 90.7843 10.3068 90.7843 9.71369C90.7843 9.29002 90.8941 8.90872 91.1138 8.56979C91.3335 8.21673 91.6316 7.92016 92.0082 7.68008C92.3848 7.44 92.832 7.25642 93.3498 7.12931C93.8833 6.98809 94.456 6.91748 95.068 6.91748C95.9153 6.91748 96.6999 6.98103 97.4217 7.10813C98.1592 7.22111 98.8026 7.38352 99.3517 7.59535C99.289 8.04726 99.1635 8.53448 98.9752 9.05701C98.7869 9.56541 98.6064 10.0314 98.4338 10.4551H97.6335L96.645 8.2944C96.4567 8.22379 96.2606 8.18142 96.0566 8.1673C95.8526 8.13906 95.625 8.12494 95.374 8.12494C94.9032 8.12494 94.5423 8.25204 94.2913 8.50624C94.0559 8.74632 93.9382 9.0217 93.9382 9.33239C93.9382 9.68545 94.0794 9.99614 94.3619 10.2645C94.66 10.5187 95.0209 10.7587 95.4446 10.9847C95.884 11.2107 96.3547 11.4366 96.8568 11.6626C97.3746 11.8885 97.8454 12.1498 98.269 12.4464C98.7084 12.7288 99.0693 13.0677 99.3517 13.4632C99.6499 13.8586 99.799 14.3317 99.799 14.8824C99.799 15.8569 99.3596 16.6265 98.4809 17.1914C97.6022 17.7422 96.4253 18.0176 94.9503 18.0176C94.1971 18.0176 93.4204 17.947 92.6201 17.8058C91.8199 17.6645 91.1295 17.4668 90.5489 17.2126C90.5803 16.7042 90.7136 16.1888 90.949 15.6662C91.1844 15.1437 91.4355 14.6777 91.7022 14.2681H92.5025L93.6558 16.5771C93.8284 16.6901 94.0167 16.7607 94.2207 16.789C94.4403 16.8031 94.6443 16.8101 94.8326 16.8101C95.2877 16.8101 95.7035 16.6901 96.0801 16.45C96.4567 16.2099 96.645 15.8781 96.645 15.4544Z" fill="#414141"/>
<path d="M86.5556 9.60782C86.3673 9.69255 86.1476 9.83377 85.8965 10.0315C85.6455 10.2292 85.4179 10.554 85.214 11.0059V16.4289C85.5278 16.4571 85.8416 16.5136 86.1554 16.5983C86.4693 16.669 86.7831 16.7819 87.0969 16.9373V17.7634H80.2712V16.9373C80.5536 16.7961 80.8204 16.6901 81.0714 16.6195C81.3225 16.5489 81.5736 16.4854 81.8246 16.4289V8.67575L80.2712 8.50628V7.68013C80.5222 7.58127 80.8282 7.48948 81.1891 7.40474C81.5657 7.32001 81.9502 7.2494 82.3424 7.19291C82.7347 7.1223 83.1113 7.06581 83.4722 7.02344C83.8488 6.98107 84.1626 6.94577 84.4137 6.91752H85.214V9.73492H85.3081C85.4336 9.42423 85.6141 9.09942 85.8495 8.76048C86.1005 8.42155 86.3908 8.11086 86.7203 7.82841C87.0498 7.54596 87.4108 7.32001 87.803 7.15054C88.1953 6.98107 88.6033 6.9034 89.027 6.91752C89.1996 7.11523 89.3486 7.39768 89.4742 7.76486C89.5997 8.11792 89.7017 8.45685 89.7802 8.78166V9.60782H86.5556Z" fill="#414141"/>
<path d="M78.5269 15.984C78.4013 16.2241 78.1973 16.4712 77.9149 16.7254C77.6482 16.9655 77.3108 17.1844 76.9028 17.3821C76.5105 17.5657 76.0476 17.714 75.5141 17.8269C74.9963 17.954 74.4314 18.0176 73.8195 18.0176C72.8466 18.0176 71.9836 17.8905 71.2304 17.6363C70.4772 17.368 69.8495 16.9937 69.3474 16.5136C68.8453 16.0193 68.4609 15.4332 68.1941 14.7553C67.943 14.0775 67.8175 13.3149 67.8175 12.4675C67.8175 10.6599 68.3432 9.28296 69.3945 8.33677C70.4458 7.39058 71.9051 6.91748 73.7724 6.91748C74.5726 6.91748 75.318 7.01634 76.0084 7.21405C76.7145 7.41176 77.2951 7.73657 77.7501 8.18849C78.2209 8.6404 78.5426 9.23353 78.7152 9.96789C78.9035 10.7023 78.8956 11.599 78.6916 12.6582H71.4658C71.4814 13.7738 71.7953 14.6636 72.4072 15.3273C73.0349 15.991 73.9528 16.3229 75.1611 16.3229C75.6789 16.3229 76.2124 16.2523 76.7616 16.1111C77.3265 15.9699 77.7658 15.7863 78.0797 15.5603L78.5269 15.984ZM73.6782 8.12494C73.3644 8.12494 73.082 8.17436 72.8309 8.27322C72.5955 8.37208 72.3837 8.55567 72.1954 8.82399C72.0228 9.07819 71.8816 9.43125 71.7717 9.88316C71.6619 10.3209 71.5834 10.8788 71.5364 11.5566H75.3258C75.4357 10.4551 75.3651 9.60778 75.114 9.01464C74.8629 8.4215 74.3843 8.12494 73.6782 8.12494Z" fill="#414141"/>
<path d="M59.7354 22.0001H53.2392V21.1739C53.7727 20.948 54.2905 20.7785 54.7926 20.6655V8.67571L53.2392 8.50624V7.68008C53.4903 7.58123 53.7962 7.48943 54.1571 7.4047C54.5337 7.31997 54.9182 7.24935 55.3105 7.19287C55.7027 7.12225 56.0793 7.06577 56.4402 7.0234C56.8168 6.98103 57.1307 6.94572 57.3817 6.91748H58.182V9.29002H58.2055C58.4723 8.61215 58.8881 8.04726 59.453 7.59535C60.0336 7.14344 60.8338 6.91748 61.8538 6.91748C62.5442 6.91748 63.164 7.0234 63.7132 7.23523C64.2781 7.43294 64.7488 7.75069 65.1254 8.18849C65.5177 8.61215 65.8158 9.16292 66.0198 9.84079C66.2395 10.5045 66.3493 11.3024 66.3493 12.2345C66.3493 13.1242 66.2081 13.9292 65.9257 14.6494C65.6589 15.3697 65.2666 15.9769 64.7488 16.4712C64.2467 16.9655 63.6269 17.3468 62.8894 17.6151C62.1676 17.8834 61.3438 18.0176 60.418 18.0176C59.8845 18.0176 59.4608 17.9823 59.147 17.9117C58.8489 17.8552 58.5272 17.7493 58.182 17.5939V20.6655C58.433 20.6938 58.6841 20.7432 58.9352 20.8138C59.1862 20.8985 59.453 21.0186 59.7354 21.1739V22.0001ZM60.4886 8.61215C59.9551 8.61215 59.4765 8.78162 59.0529 9.12056C58.6449 9.45949 58.3546 9.98202 58.182 10.6881V16.3229C58.433 16.4924 58.6998 16.6195 58.9822 16.7042C59.2647 16.7748 59.6334 16.8101 60.0885 16.8101C60.9829 16.8101 61.6419 16.4218 62.0656 15.6451C62.4893 14.8683 62.7011 13.7315 62.7011 12.2345C62.7011 11.0765 62.5363 10.1868 62.2068 9.56541C61.893 8.92991 61.3203 8.61215 60.4886 8.61215Z" fill="#414141"/>
<path d="M39.7743 13.5691C39.7743 12.6794 39.7978 11.8532 39.8449 11.0906C39.892 10.328 39.9155 9.52304 39.9155 8.67571L38.3621 8.50624V7.68008C38.6131 7.59535 38.9191 7.51062 39.28 7.42588C39.6566 7.34115 40.041 7.27054 40.4333 7.21405C40.8256 7.14344 41.2022 7.08695 41.5631 7.04458C41.9397 6.98809 42.2535 6.94572 42.5046 6.91748H43.3048C43.3048 7.97665 43.2813 9.0217 43.2342 10.0526C43.1872 11.0694 43.1636 12.0721 43.1636 13.0607C43.1636 14.2187 43.2892 15.0519 43.5402 15.5603C43.807 16.0687 44.2934 16.3229 44.9995 16.3229C45.4859 16.3229 45.9331 16.1605 46.3411 15.8357C46.7648 15.4968 47.11 14.9601 47.3768 14.2258V8.67571L45.8468 8.50624V7.68008C46.0822 7.59535 46.3725 7.51062 46.7177 7.42588C47.0786 7.34115 47.4474 7.27054 47.824 7.21405C48.2162 7.14344 48.6007 7.08695 48.9773 7.04458C49.3539 6.98809 49.6834 6.94572 49.9658 6.91748H50.7661V16.2594L52.3195 16.4288V17.1703C52.0999 17.255 51.8253 17.3397 51.4957 17.4245C51.1662 17.5092 50.821 17.5939 50.4601 17.6787C50.0992 17.7493 49.7383 17.8058 49.3774 17.8481C49.0322 17.9046 48.7184 17.947 48.4359 17.9752H47.6357L47.4709 15.4544H47.3768C47.2983 15.751 47.1571 16.0546 46.9531 16.3653C46.7491 16.6619 46.4823 16.9372 46.1528 17.1914C45.839 17.4315 45.4624 17.6292 45.023 17.7846C44.5837 17.9399 44.0973 18.0176 43.5638 18.0176C42.9675 18.0176 42.434 17.947 41.9632 17.8058C41.5082 17.6787 41.1159 17.4456 40.7864 17.1067C40.4569 16.7678 40.2058 16.3159 40.0332 15.751C39.8606 15.172 39.7743 14.4447 39.7743 13.5691Z" fill="#414141"/>
<path d="M28.6739 16.0052C28.8465 16.1605 29.0897 16.3088 29.4036 16.45C29.7174 16.5771 30.1332 16.6407 30.651 16.6407C31.5141 16.6407 32.228 16.4429 32.7929 16.0475C33.3735 15.638 33.6638 15.0731 33.6638 14.3528C33.6638 13.8303 33.4755 13.3925 33.0989 13.0395C32.738 12.6864 32.2751 12.3616 31.7102 12.065C31.1453 11.7685 30.5412 11.479 29.8979 11.1965C29.2545 10.9 28.6504 10.554 28.0855 10.1585C27.5206 9.76311 27.0499 9.29707 26.6733 8.76043C26.3124 8.20966 26.1319 7.53179 26.1319 6.72682C26.1319 6.03483 26.2731 5.43463 26.5556 4.92623C26.838 4.41783 27.2225 4.00122 27.7089 3.67641C28.211 3.33747 28.7995 3.09033 29.4742 2.93499C30.1489 2.76552 30.8786 2.68079 31.6631 2.68079C32.6203 2.68079 33.5069 2.74434 34.3228 2.87144C35.1545 2.98441 35.8998 3.168 36.5588 3.42221C36.5431 3.70465 36.5118 4.02946 36.4647 4.39664C36.4333 4.76382 36.3862 5.131 36.3235 5.49818C36.2607 5.85124 36.1901 6.19017 36.1116 6.51498C36.0489 6.82567 35.9861 7.08694 35.9233 7.29877H34.9583L33.8756 4.39664C33.6873 4.31191 33.4049 4.23424 33.0283 4.16363C32.6674 4.09301 32.2908 4.05771 31.8985 4.05771C31.2395 4.05771 30.6824 4.21305 30.2274 4.52374C29.7723 4.83443 29.5448 5.28635 29.5448 5.87948C29.5448 6.41613 29.7331 6.8751 30.1097 7.2564C30.4863 7.62358 30.957 7.96252 31.5219 8.27321C32.0868 8.5839 32.6988 8.89459 33.3578 9.20528C34.0325 9.50185 34.6523 9.84784 35.2172 10.2433C35.7821 10.6387 36.2529 11.1047 36.6294 11.6414C37.006 12.1639 37.1943 12.8135 37.1943 13.5902C37.1943 15.0025 36.6608 16.0969 35.5938 16.8737C34.5425 17.6363 32.989 18.0176 30.9335 18.0176C30.4314 18.0176 29.9214 17.9893 29.4036 17.9328C28.9014 17.8764 28.4229 17.7987 27.9678 17.6998C27.5128 17.601 27.1048 17.4951 26.7439 17.3821C26.3987 17.2691 26.1398 17.1491 25.9672 17.022C25.9829 16.6971 26.0221 16.3512 26.0848 15.984C26.1476 15.6027 26.2104 15.2284 26.2731 14.8613C26.3516 14.4799 26.4301 14.1198 26.5085 13.7809C26.587 13.442 26.6654 13.1454 26.7439 12.8912H27.7089L28.6739 16.0052Z" fill="#414141"/>
<path fill-rule="evenodd" clip-rule="evenodd" d="M19.4754 8.48952V0.0220942C15.8754 -0.132349 9.78928 0.478205 6.36776 3.27865C3.80347 5.37748 6.52306 8.48952 9.83676 8.48952H19.4754ZM8.10973e-07 11.1464L0 19.6139C3.59999 19.7683 9.68613 19.1578 13.1076 16.3573C15.6719 14.2585 12.9524 11.1464 9.63865 11.1464L8.10973e-07 11.1464Z" fill="#FFDD2D"/>
</svg>
