<svg width="40" height="40" viewBox="0 0 40 40" fill="none" xmlns="http://www.w3.org/2000/svg">
<path d="M7.14286 10H17.8571C18.4255 10 18.9705 10.2258 19.3724 10.6276C19.7742 11.0295 20 11.5745 20 12.1429C20 12.7112 19.7742 13.2562 19.3724 13.6581C18.9705 14.0599 18.4255 14.2857 17.8571 14.2857H7.14286C6.57454 14.2857 6.02949 14.0599 5.62763 13.6581C5.22576 13.2562 5 12.7112 5 12.1429C5 11.5745 5.22576 11.0295 5.62763 10.6276C6.02949 10.2258 6.57454 10 7.14286 10ZM22.1429 27.1429H32.8571C33.4255 27.1429 33.9705 27.3686 34.3724 27.7705C34.7742 28.1723 35 28.7174 35 29.2857C35 29.854 34.7742 30.3991 34.3724 30.8009C33.9705 31.2028 33.4255 31.4286 32.8571 31.4286H22.1429C21.5745 31.4286 21.0295 31.2028 20.6276 30.8009C20.2258 30.3991 20 29.854 20 29.2857C20 28.7174 20.2258 28.1723 20.6276 27.7705C21.0295 27.3686 21.5745 27.1429 22.1429 27.1429ZM7.14286 18.5714H32.8571C33.4255 18.5714 33.9705 18.7972 34.3724 19.1991C34.7742 19.6009 35 20.146 35 20.7143C35 21.2826 34.7742 21.8277 34.3724 22.2295C33.9705 22.6314 33.4255 22.8571 32.8571 22.8571H7.14286C6.57454 22.8571 6.02949 22.6314 5.62763 22.2295C5.22576 21.8277 5 21.2826 5 20.7143C5 20.146 5.22576 19.6009 5.62763 19.1991C6.02949 18.7972 6.57454 18.5714 7.14286 18.5714Z" fill="#414141"/>
</svg>
